<?xml version="1.0" encoding="utf-8"?>
<!-- Generator: Adobe Illustrator 27.6.1, SVG Export Plug-In . SVG Version: 6.00 Build 0)  -->
<svg version="1.1" id="_x2018_ëîé_x5F_1" xmlns="http://www.w3.org/2000/svg" xmlns:xlink="http://www.w3.org/1999/xlink"
	 x="0px" y="0px" viewBox="0 0 6000 2000" style="enable-background:new 0 0 6000 2000;" xml:space="preserve">
<g>
	<path d="M5762.56,1827.3c-94.32,24.53-195.46,34.21-300.61,28.76c-173.22-8.97-326.18-47.8-454.64-115.43
		c-44.93-23.65-88.59-51.79-130.81-79c-67.93-43.78-138.18-89.06-215.53-116.82c-40.84-14.66-84.73-23.03-126.92-24.23
		c-46.23-1.31-89.1,5.71-127.41,20.85c-28.6,11.31-51.94,26.28-74.51,40.76c-28.34,18.18-55.25,35.44-90.9,45.05
		c44.78-65.17,93.09-129.72,139.88-192.23c29.91-39.96,60.83-81.27,90.48-122.28l7.58-10.49c34.76-48.08,70.71-97.81,106.44-146.43
		c7.87-10.71,18.63-24.74,31.09-40.97c23.53-30.67,52.81-68.83,75.49-101.65l4.59-6.64l-8.06,0.37
		c-85.7,3.93-176.99,15.13-177.9,15.24l-1.56,0.19l-1.01,1.21c-2.29,2.74-224.43,268.04-317.19,385.25l0.11-30.15
		c91.13-100.08,289.21-348.69,291.21-351.2l5.88-7.39l-9.4,0.92c-22.17,2.16-529.11,51.59-575.82,56.85l-14.58-29.59
		c317.03-37.03,639.36-62.93,958.17-76.98l11.01-0.49l-210.5-160.71l9.25,16.71c13.18,23.79,29.64,39.49,47.06,56.12
		c1.38,1.31,2.75,2.63,4.13,3.95c-17.53,19.12-43.39,33.59-76.95,43.04c-34.59,9.74-71.82,12.72-96.81,14.12
		c-104.59,5.84-210.98-9.85-313.86-25.02c-7.87-1.16-15.73-2.32-23.58-3.47c-6.46-0.94-12.92-1.93-19.41-2.91
		c-50.66-7.69-103.04-15.64-154.04-6.07c-37.06,6.95-70.03,20.26-98,39.55c-29.09,20.07-51.38,45.74-66.3,76.36
		c-42.97-10.61-44.94-11.23-88.63-27.63c5.05-35.73,11.97-73.37,27.15-108.02c11.81-26.94,33.97-63.47,72.52-84.51
		c29.03-15.85,65.15-21.98,113.64-19.3c55.09,3.05,110.05,15.46,163.21,27.47c34.46,7.78,70.09,15.83,105.59,21.31
		c34.57,5.33,69.92,7.58,105.51,7.58c94.54,0,190.59-15.86,276.85-31.8l11.09-2.05l-9.91-5.4
		c-100.68-54.85-207.55-168.41-279.47-254.01c-78.06-92.91-132.93-173.86-133.47-174.66l-1.33-1.97l-2.37,0.23
		c-3.02,0.29-303.38,28.84-469.82,0.15c-50.23-8.66-102.93,0.35-144.57,24.72c-59.06,34.56-93.87,103.55-112.66,155.34l-0.7,1.94
		l1.17,1.7c25.15,36.41,90.2,137.87,146.95,233.65c96.09,162.19,108.51,205.97,107.36,217.63l-0.3,3.04l91.57,34.93
		c11.71,4.47,23.82,9.08,33.09,17.38c11.26,10.08,11.32,21.14,9.39,28.65c-3.87,15.01-18.8,28.68-35.5,32.51
		c-13.11,3.01-41.08,3.38-53.43,0.71l-5.74-1.24c-45.25-9.73-72.56-15.6-98.19-54.49l-1.96-2.98l-3.18,1.6
		c-63.67,32.11-158.89,59.36-159.85,59.63l-1.26,0.36l-0.8,1.04c-0.96,1.25-97.02,125.21-153.91,182.15l-5.83,5.84l8.2,0.96
		c254.48,29.85,746.45,63.28,792.82,66.4l19.87,289.21l-820.39-84.16l-6.34-205.38c14.84,0.94,24.62,2.75,29.09,3.73l5.09,184.97
		l772.47,84.07l-0.32-4.76c-0.11-1.73-11.61-173.93-18.81-241.81l-0.35-3.29l-3.3-0.27c-136.65-11.14-277.83-23.83-414.37-36.09
		c-133.87-12.03-272.2-24.45-406.37-35.44c24.83-28.1,48.45-55.86,71.33-82.76c24.48-28.78,49.8-58.54,76.53-88.63l-5.49-5.78
		c-97.2,77.59-177.29,129.09-267.81,172.2c-82.96,39.51-169.55,69.82-301.29,114.51l-4.36-38.16c9.19-2.71,18.23-5.37,27.13-7.99
		c159.2-46.81,274.23-80.63,442.94-195.27c133.64-90.81,232.45-127.51,337.07-166.38l6.73-2.5l-5.67-4.41
		c-67.79-52.72-152.88-54.19-222.07-3.83c-2.69,1.96-5.33,3.87-7.91,5.75c-35.49,25.77-61.12,44.39-91.95,77.48
		c-51.36,55.14-126.71,104.5-223.97,146.72c-97.06,42.14-193.11,67.24-257.82,81.05c-48.64-190.65-81.91-384.8-98.91-577.15
		l30.55-11.63c11.84,68.34,23.29,138.3,34.37,206.02c17.5,106.97,35.6,217.59,55.86,325.7l0.77,4.08l4.05-0.92
		c177.37-40.1,334.48-122.93,454.36-239.54l3.14-3.05c33.43-32.52,67.99-66.15,104.78-96.02c39.07-31.71,72.75-49.12,119.87-37.91
		c38.63,9.19,62.66,36.66,83.86,60.89c15.91,18.19,30.94,35.37,49.94,42.37l8.38,3.09l-3.28-8.31
		c-37.05-93.87-93.52-187.08-148.12-277.21c-20.01-33.03-40.7-67.18-59.76-100.33c-19.92-34.63-42.49-73.89-75.68-101.55
		c-72.55-60.46-176.66-52.66-249.89-25.21c-65.66,24.62-123.83,66.1-180.08,106.21c-13.46,9.59-27.37,19.52-41.13,29.02
		c-78.84,54.46-152.75,75.16-238.32,99.14l-3.17,0.89l0.26,3.28c12.97,165.08,72.94,531.21,87.25,605.21
		c14.91,77.06,0.82,128.62-41.88,153.23c-28.16,16.23-68.79,21.02-120.76,14.22c-44.79-5.86-96.76-20.05-154.47-42.21
		c-102.13-39.2-202.15-96.55-239.84-129.34c-123.46-107.41-263.4-229.14-428.52-216.7c-48.01,3.62-96.84,18.78-149.31,46.36
		c-46.61,24.49-91.77,56.33-135.45,87.13c-78.48,55.33-159.64,112.54-252.72,129.9c-114.84,21.41-245.34-18.33-387.88-118.13
		c-36.51-25.56-72.49-53.48-107.3-80.48c-74.43-57.74-151.39-117.45-238.19-157.79c-119.16-55.38-260.16-70.4-397.01-42.28
		c-62.33,12.8-121.92,34.17-176.62,62.89c0.03,0.25,0.06,0.5,0.06,0.77v8.25c55.03-29.35,115.18-51.13,178.17-64.07
		c135.19-27.77,274.42-12.96,392.03,41.7c85.98,39.96,162.58,99.39,236.66,156.86c34.88,27.06,70.94,55.04,107.61,80.71
		c118.93,83.27,229.83,125.21,330.64,125.21c21.56,0,42.68-1.92,63.3-5.77c94.8-17.67,176.68-75.4,255.86-131.22
		c43.47-30.64,88.42-62.33,134.56-86.58c51.48-27.05,99.3-41.92,146.19-45.46c161.79-12.2,300.39,108.37,422.66,214.76
		c38.22,33.25,139.27,91.25,242.23,130.77c58.29,22.38,110.88,36.73,156.3,42.67c53.75,7.03,96.07,1.91,125.79-15.23
		c45.98-26.5,61.36-80.9,45.74-161.68c-14.2-73.42-73.4-434.72-86.87-601.04c84.93-23.79,158.58-44.83,237.54-99.37
		c13.81-9.54,27.75-19.48,41.23-29.09c55.83-39.82,113.57-80.99,178.25-105.23c71.13-26.67,172.04-34.4,241.96,23.86
		c32.09,26.74,53.33,63.67,73.87,99.39c19.11,33.23,39.82,67.42,59.85,100.49c52.58,86.79,106.89,176.45,143.7,266.49
		c-13.33-7.91-25.26-21.54-37.76-35.83c-21.99-25.13-46.91-53.62-88.03-63.4c-50.31-11.97-85.8,6.23-126.76,39.48
		c-37.07,30.09-71.76,63.85-105.32,96.49l-3.14,3.05c-117.9,114.7-272.23,196.44-446.5,236.55
		c-19.93-106.71-37.79-215.85-55.06-321.43c-11.34-69.31-23.07-140.98-35.21-210.87l-0.83-4.78l-45.27,17.23l0.26,3.01
		c17.06,195.02,50.82,391.89,100.35,585.16l0.95,3.71l3.75-0.79c65.08-13.7,163.55-39.11,263.11-82.33
		c98.27-42.66,174.52-92.66,226.63-148.61c30.3-32.52,55.67-50.95,90.8-76.46c2.59-1.88,5.23-3.8,7.92-5.75
		c32.64-23.76,69.55-35.96,106.81-35.3c34.95,0.62,69.32,12.57,99.83,34.62c-102.56,38.12-200.4,75.35-331.91,164.71
		c-167.68,113.94-282.2,147.61-440.7,194.21c-9.95,2.93-20.07,5.9-30.37,8.95l-3.22,0.95l6.25,54.69l4.7-1.59
		c134.66-45.67,222.52-76.29,306.86-116.45c80.44-38.31,152.66-83.17,235.72-146.84c-16.61,19.17-32.72,38.11-48.48,56.64
		c-24.48,28.78-49.8,58.54-76.53,88.63l-5.32,5.99l7.99,0.65c136.62,11.14,277.77,23.82,414.28,36.09
		c135.45,12.17,275.47,24.75,411.12,35.83c6.52,63.18,16.24,205.61,18.12,233.45l-756.05-82.29l-5.06-183.97l-2.81-0.81
		c-0.53-0.15-13.23-3.76-38.05-4.95l-4.32-0.21l6.82,221.06l832.08,85.36l4.72,0.48l-21-305.66l-3.49-0.23
		c-5.22-0.35-519.68-34.73-787.78-65.65c54.8-56.48,138.89-164.28,148.01-176.02c11.39-3.31,96.65-28.5,156.84-58.24
		c26.91,39,56.68,45.4,101.21,54.97l5.73,1.23c13.44,2.91,42.69,2.53,56.91-0.73c19.45-4.46,36.89-20.57,41.46-38.31
		c3.52-13.65-0.67-26.65-11.8-36.61c-10.38-9.28-23.76-14.39-35.58-18.9l-86.09-32.83c-1.01-25.74-37.47-99.47-108.51-219.37
		c-55.98-94.48-120.06-194.53-146.07-232.41c18.5-50.32,52.19-116.3,108.47-149.23c40.04-23.43,90.77-32.08,139.17-23.74
		c56.03,9.66,127.02,12.88,196.84,12.88c129.09,0,254.12-11.02,272.75-12.73c8.88,12.96,61.03,88.13,132.58,173.3
		c46.02,54.78,90.95,102.93,133.56,143.13c49.57,46.76,96.12,82.84,138.57,107.38c-115.53,21.11-247.49,40.9-368.81,22.18
		c-35.22-5.43-70.72-13.45-105.04-21.21c-53.48-12.08-108.78-24.57-164.53-27.65c-50.04-2.77-87.52,3.67-117.91,20.26
		c-40.53,22.12-63.71,60.24-76.02,88.32c-16.03,36.57-23.02,76.07-28.2,113.3l-0.44,3.17l3,1.12
		c48.16,18.08,48.16,18.08,95.69,29.81l3.19,0.79l1.39-2.98c14.3-30.63,36.18-56.24,65.01-76.13
		c27.05-18.66,58.99-31.54,94.93-38.28c49.67-9.31,101.37-1.47,151.36,6.12c6.5,0.99,12.98,1.97,19.45,2.92
		c7.85,1.15,15.71,2.31,23.58,3.47c103.28,15.23,210.07,30.97,315.47,25.09c25.37-1.42,63.19-4.45,98.53-14.41
		c36.73-10.35,64.78-26.62,83.36-48.37l2.44-2.86l-2.71-2.61c-2.31-2.24-4.63-4.44-6.93-6.64c-11.68-11.15-22.91-21.86-32.89-34.87
		l159.18,121.52c-317.31,14.25-637.99,40.22-953.37,77.2l-5.63,0.66l22.12,44.87l2.85-0.39c18.25-2.49,495.51-49.08,568.97-56.24
		c-33.85,42.36-204.32,255.06-286,344.54l-1.04,1.14l-0.2,56.47l7.19-9.15c84.81-108.01,306.23-372.68,323.2-392.96
		c11.99-1.44,90.83-10.7,167.61-14.61c-21.83,31.08-48.72,66.13-70.61,94.67c-12.49,16.27-23.27,30.33-31.19,41.11
		c-35.75,48.65-71.7,98.38-106.47,146.48l-7.58,10.49c-29.61,40.95-60.51,82.24-90.4,122.17c-48.9,65.33-99.47,132.89-145.98,201.13
		l-5.66,8.31l9.82-2.15c42.19-9.21,72-28.34,103.57-48.59c22.25-14.27,45.26-29.03,73.14-40.05c37.3-14.75,79.09-21.57,124.25-20.3
		c41.36,1.17,84.39,9.39,124.44,23.76c76.49,27.45,146.35,72.47,213.9,116.01c42.37,27.31,86.18,55.54,131.42,79.36
		c129.49,68.17,283.57,107.31,457.96,116.34c19.1,0.99,38.05,1.48,56.87,1.48c85.61,0,168.19-10.21,246.16-30.49
		c87.15-22.66,165.91-57.37,234.8-103.4v-9.65C5930.18,1769.01,5850.72,1804.37,5762.56,1827.3z"/>
</g>
</svg>
